# File created by Blade
# Date/Time:  Wed Jan 21 14:43:55 2015
# Frame Rate: 120.000 fps
#------------------------------------------------------
:FULLY-SPECIFIED
:DEGREES
1309
root 17.606562 35.735530 -19.752566 -171.824215 -4.143239 178.614432
Spine -18.617895 2.166406 1.927326
Head 26.305769 -6.400612 0.697514
LeftShoulder -12.754388 -63.428631 53.067986
LeftArm 55.726454 -38.447276 -21.308760
LeftForeArm -54.481905 0.000000 80.408553
LeftHand 4.785014 0.000000 -8.899432
LeftHandThumb1 -26.253704 0.000000 33.147579
RightShoulder -7.410545 24.804553 -46.620665
RightArm 72.097708 62.507686 38.018709
RightForeArm 32.204832 -0.000000 60.517196
RightHand 8.128595 -0.000000 7.452272
RightHandThumb1 -24.326973 -0.000000 -32.862282
LeftUpLeg -2.386227 9.636225 -2.760121
LeftLeg -6.248277 -0.000000 0.000000
LeftFoot -17.144263 24.412008 -15.349780
LeftToeBase 25.334044 -0.000000 -0.000000
RightUpLeg -3.594696 -11.789234 -5.696018
RightLeg -0.323838 -0.000000 0.000000
RightFoot -20.037649 -22.127977 20.769118
RightToeBase 24.894121 -0.000000 -0.000000
1310
root 17.592142 35.734416 -19.759873 -171.838562 -4.102078 178.591083
Spine -18.648548 2.103267 2.179988
Head 26.578187 -5.995344 0.922089
LeftShoulder -13.031459 -63.510280 53.648147
LeftArm 56.286533 -38.495523 -21.591000
LeftForeArm -54.768196 0.000000 80.607021
LeftHand 4.713547 -0.000000 -9.182261
LeftHandThumb1 -26.253704 0.000000 33.147579
RightShoulder -7.637985 25.182548 -46.923565
RightArm 71.444323 61.916419 37.111169
RightForeArm 32.520979 -0.000000 61.413735
RightHand 8.603176 -0.000000 8.366279
RightHandThumb1 -24.326973 -0.000000 -32.862282
LeftUpLeg -2.348969 9.674623 -2.806520
LeftLeg -6.259701 -0.000000 0.000000
LeftFoot -17.188191 24.426860 -15.286559
LeftToeBase 25.627261 -0.000000 -0.000000
RightUpLeg -3.581135 -11.829619 -5.752389
RightLeg -0.311007 -0.000000 0.000000
RightFoot -20.035568 -22.102185 20.598252
RightToeBase 25.245799 -0.000000 -0.000000
1311
root 17.579462 35.732508 -19.765782 -171.824568 -4.065650 178.574350
Spine -18.705911 2.048734 2.421948
Head 26.846111 -5.687007 1.163380
LeftShoulder -13.302447 -63.697283 54.231371
LeftArm 56.749983 -38.460520 -21.760363
LeftForeArm -55.023514 0.000000 80.795252
LeftHand 4.750016 0.000000 -9.312232
LeftHandThumb1 -26.253704 0.000000 33.147579
RightShoulder -7.652657 24.814003 -46.921292
RightArm 71.345398 62.128882 36.352592
RightForeArm 32.467881 -0.000000 62.155351
RightHand 9.070129 -0.000000 9.221814
RightHandThumb1 -24.326973 -0.000000 -32.862282
LeftUpLeg -2.337289 9.671714 -2.849665
LeftLeg -6.278958 -0.000000 0.000000
LeftFoot -17.174630 24.455496 -15.343777
LeftToeBase 25.369410 -0.000000 -0.000000
RightUpLeg -3.602481 -11.869993 -5.783904
RightLeg -0.290848 -0.000000 0.000000
RightFoot -20.000992 -21.974795 20.762356
RightToeBase 24.851788 -0.000000 -0.000000
1312
root 17.569541 35.730493 -19.771719 -171.813163 -4.040339 178.553545
Spine -18.750875 1.964936 2.665591
Head 27.095635 -5.347608 1.378300
LeftShoulder -13.623770 -63.894778 54.888750
LeftArm 57.071460 -38.407827 -21.884685
LeftForeArm -55.313924 -0.000000 81.060835
LeftHand 4.875435 -0.000000 -9.454153
LeftHandThumb1 -26.253704 0.000000 33.147579
RightShoulder -7.762883 24.829712 -47.056852
RightArm 70.952718 62.030957 35.485059
RightForeArm 32.613280 0.000000 62.920775
RightHand 9.459867 -0.000000 10.298220
RightHandThumb1 -24.326973 -0.000000 -32.862282
LeftUpLeg -2.331641 9.686247 -2.891427
LeftLeg -6.287090 -0.000000 0.000000
LeftFoot -17.179177 24.470358 -15.337143
LeftToeBase 25.242136 -0.000000 -0.000000
RightUpLeg -3.607291 -11.907785 -5.814010
RightLeg -0.295575 -0.000000 0.000000
RightFoot -20.007952 -21.975489 20.657806
RightToeBase 24.958996 -0.000000 -0.000000
1313
root 17.560505 35.729473 -19.778656 -171.815686 -4.032151 178.533157
Spine -18.766121 1.867732 2.898858
Head 27.303651 -5.062090 1.579634
LeftShoulder -13.971135 -64.120850 55.518472
LeftArm 57.479289 -38.331613 -22.035599
LeftForeArm -55.451923 -0.000000 81.231372
LeftHand 4.995357 -0.000000 -9.708124
LeftHandThumb1 -26.253704 0.000000 33.147579
RightShoulder -7.916028 25.043389 -47.294716
RightArm 70.095039 61.775514 34.311101
RightForeArm 32.806426 -0.000000 63.807723
RightHand 9.879898 -0.000000 11.142507
RightHandThumb1 -24.326973 -0.000000 -32.862282
LeftUpLeg -2.308722 9.676299 -2.925959
LeftLeg -6.297960 -0.000000 0.000000
LeftFoot -17.186121 24.492659 -15.322548
LeftToeBase 25.307482 -0.000000 -0.000000
RightUpLeg -3.587437 -11.949249 -5.851285
RightLeg -0.310320 -0.000000 0.000000
RightFoot -20.020142 -22.008116 20.473197
RightToeBase 25.345917 -0.000000 -0.000000
1314
root 17.553753 35.727652 -19.785965 -171.798967 -4.018193 178.522687
Spine -18.827221 1.740236 3.144235
Head 27.540350 -4.753235 1.838020
LeftShoulder -14.220741 -64.352494 56.086737
LeftArm 57.785684 -38.265813 -22.088841
LeftForeArm -55.668725 -0.000000 81.452007
LeftHand 4.904941 0.000000 -9.983820
LeftHandThumb1 -26.253704 0.000000 33.147579
RightShoulder -7.807565 24.638673 -47.228796
RightArm 69.805428 62.197463 33.397268
RightForeArm 33.236221 -0.000000 64.527901
RightHand 10.404325 0.000000 12.167597
RightHandThumb1 -24.326973 -0.000000 -32.862282
LeftUpLeg -2.302946 9.681439 -2.949926
LeftLeg -6.319382 -0.000000 0.000000
LeftFoot -17.216693 24.539983 -15.224368
LeftToeBase 25.475937 -0.000000 -0.000000
RightUpLeg -3.589280 -11.972770 -5.868460
RightLeg -0.323079 -0.000000 0.000000
RightFoot -20.010348 -22.006804 20.429160
RightToeBase 25.327605 -0.000000 -0.000000
